<svg width="24" height="27" viewBox="0 0 24 27" fill="none" xmlns="http://www.w3.org/2000/svg">
<path d="M17.1085 14.1399C19.0775 15.0706 20.7564 16.5192 21.9655 18.3307C23.1746 20.1423 23.8683 22.2484 23.9725 24.4239C23.9862 24.6232 23.96 24.8232 23.8953 25.0123C23.8307 25.2013 23.729 25.3755 23.5961 25.5247C23.4632 25.6738 23.3019 25.795 23.1216 25.8809C22.9412 25.9669 22.7456 26.016 22.546 26.0253C22.3465 26.0347 22.1471 26.004 21.9595 25.9352C21.772 25.8665 21.6 25.7609 21.4538 25.6248C21.3076 25.4886 21.1901 25.3247 21.1081 25.1425C21.0261 24.9603 20.9814 24.7636 20.9765 24.5639C20.8674 22.2529 19.8727 20.0727 18.1986 18.4758C16.5246 16.879 14.3 15.988 11.9865 15.988C9.67294 15.988 7.44827 16.879 5.77426 18.4758C4.10025 20.0727 3.10549 22.2529 2.99646 24.5639C2.96951 24.9551 2.79048 25.3201 2.49769 25.5809C2.20491 25.8417 1.82165 25.9775 1.42998 25.9592C1.03832 25.9409 0.669391 25.77 0.402201 25.483C0.135011 25.196 -0.00919815 24.8159 0.000455196 24.4239C0.104177 22.2486 0.797518 20.1425 2.00626 18.3309C3.215 16.5194 4.89363 15.0707 6.86246 14.1399C5.60048 13.0873 4.69339 11.6715 4.26456 10.085C3.83573 8.49863 3.90599 6.81863 4.46579 5.27356C5.02558 3.72849 6.04772 2.39337 7.39318 1.44979C8.73864 0.506217 10.3421 0 11.9855 0C13.6288 0 15.2323 0.506217 16.5777 1.44979C17.9232 2.39337 18.9453 3.72849 19.5051 5.27356C20.0649 6.81863 20.1352 8.49863 19.7064 10.085C19.2775 11.6715 18.3704 13.0873 17.1085 14.1399ZM16.9865 7.9939C16.9865 6.66781 16.4597 5.39604 15.522 4.45836C14.5843 3.52068 13.3125 2.9939 11.9865 2.9939C10.6604 2.9939 9.3886 3.52068 8.45092 4.45836C7.51324 5.39604 6.98646 6.66781 6.98646 7.9939C6.98646 9.31998 7.51324 10.5917 8.45092 11.5294C9.3886 12.4671 10.6604 12.9939 11.9865 12.9939C13.3125 12.9939 14.5843 12.4671 15.522 11.5294C16.4597 10.5917 16.9865 9.31998 16.9865 7.9939Z" fill="white"/>
</svg>
