<svg width="36" height="25" viewBox="0 0 36 25" fill="none" xmlns="http://www.w3.org/2000/svg">
<path d="M4.39156 7.91843C4.3914 6.60611 4.71744 5.31433 5.34036 4.15927C5.96329 3.00421 6.86355 2.0221 7.96019 1.30128C9.05682 0.580459 10.3154 0.143531 11.6228 0.0297937C12.9302 -0.0839433 14.2454 0.129078 15.45 0.649698C16.6546 1.17032 17.711 1.98221 18.524 3.01235C19.337 4.04248 19.8812 5.25856 20.1077 6.5512C20.3342 7.84383 20.2358 9.17249 19.8213 10.4177C19.4069 11.6628 18.6895 12.7855 17.7336 13.6846C19.5361 14.5593 21.1011 15.8557 22.2958 17.464C23.4906 19.0722 24.28 20.9449 24.5969 22.9231C24.6318 23.1433 24.623 23.3681 24.571 23.5848C24.519 23.8016 24.4249 24.0059 24.2939 24.1863C24.1629 24.3666 23.9977 24.5194 23.8077 24.6359C23.6177 24.7524 23.4066 24.8303 23.1865 24.8652C22.9663 24.9001 22.7415 24.8913 22.5248 24.8393C22.308 24.7873 22.1037 24.6931 21.9233 24.5622C21.743 24.4312 21.5902 24.266 21.4737 24.076C21.3573 23.886 21.2793 23.6749 21.2444 23.4547C20.9051 21.329 19.8191 19.3939 18.1814 17.9969C16.5437 16.5999 14.4616 15.8324 12.309 15.8324C10.1564 15.8324 8.0743 16.5999 6.4366 17.9969C4.7989 19.3939 3.71289 21.329 3.3736 23.4547C3.33854 23.6749 3.26048 23.8859 3.14385 24.0759C3.02723 24.2659 2.87433 24.431 2.69389 24.5618C2.51345 24.6927 2.309 24.7868 2.09222 24.8386C1.87543 24.8905 1.65055 24.8991 1.43043 24.8641C1.2103 24.829 0.999234 24.7509 0.809278 24.6343C0.619322 24.5177 0.454197 24.3648 0.323331 24.1843C0.192464 24.0039 0.0984197 23.7995 0.0465665 23.5827C-0.00528681 23.3659 -0.0139333 23.141 0.0211206 22.9209C0.338576 20.9434 1.12815 19.0715 2.32291 17.4641C3.51767 15.8566 5.08239 14.561 6.88443 13.6869C6.09646 12.947 5.46867 12.0533 5.03989 11.0611C4.6111 10.0689 4.39044 8.99931 4.39156 7.91843ZM24.7507 4.52524C26.0651 4.52616 27.3509 4.90858 28.4521 5.6261C29.5532 6.34362 30.4225 7.36537 30.9542 8.56732C31.486 9.76928 31.6574 11.0997 31.4477 12.3972C31.2379 13.6947 30.656 14.9034 29.7727 15.8766C31.1496 16.5602 32.373 17.5167 33.3686 18.6881C34.3641 19.8594 35.111 21.2211 35.5637 22.6901C35.6534 22.9753 35.666 23.2792 35.6003 23.5708C35.5346 23.8624 35.3929 24.1315 35.1896 24.3507C34.9862 24.5698 34.7285 24.7313 34.4427 24.8187C34.1568 24.9061 33.8528 24.9163 33.5617 24.8482C33.2709 24.7805 33.003 24.6374 32.785 24.4333C32.567 24.2291 32.4066 23.9713 32.3198 23.6855C31.9144 22.3739 31.1756 21.19 30.1756 20.2495C29.1756 19.309 27.9487 18.644 26.6147 18.3197C26.2443 18.2303 25.9147 18.0187 25.6792 17.7192C25.4436 17.4196 25.3158 17.0494 25.3163 16.6684V15.8721C25.3161 15.5562 25.404 15.2466 25.5703 14.978C25.7366 14.7094 25.9745 14.4926 26.2573 14.3519C26.9431 14.0121 27.4938 13.4503 27.8201 12.7579C28.1463 12.0655 28.2289 11.2832 28.0544 10.538C27.8798 9.79272 27.4585 9.12838 26.8588 8.65283C26.259 8.17729 25.5161 7.91848 24.7507 7.91843C24.3008 7.91843 23.8692 7.73969 23.5511 7.42151C23.2329 7.10334 23.0541 6.6718 23.0541 6.22184C23.0541 5.77187 23.2329 5.34033 23.5511 5.02216C23.8692 4.70399 24.3008 4.52524 24.7507 4.52524ZM12.309 3.39417C11.7065 3.38055 11.1074 3.48743 10.5468 3.70854C9.98614 3.92966 9.47535 4.26055 9.04437 4.68178C8.61339 5.10302 8.27091 5.60612 8.03704 6.16154C7.80317 6.71695 7.68262 7.3135 7.68247 7.91615C7.68232 8.51879 7.80257 9.1154 8.03616 9.67093C8.26976 10.2265 8.61198 10.7297 9.04275 11.1512C9.47352 11.5726 9.98415 11.9038 10.5447 12.1252C11.1052 12.3466 11.7043 12.4538 12.3068 12.4404C13.4889 12.4143 14.6138 11.9264 15.4406 11.0813C16.2675 10.2361 16.7307 9.1008 16.731 7.91841C16.7313 6.73602 16.2687 5.60049 15.4422 4.75492C14.6158 3.90934 13.4911 3.4209 12.309 3.39417Z" fill="white"/>
</svg>
